<!--?xml version="1.0" standalone="no"?-->
              <svg id="sw-js-blob-svg" viewBox="0 0 100 100" xmlns="http://www.w3.org/2000/svg" version="1.1">
                    <defs> 
                        <linearGradient id="sw-gradient" x1="0" x2="1" y1="1" y2="0">
                            <stop id="stop1" stop-color="rgba(174.245, 112.208, 173.282, 0.53)" offset="0%"></stop>
                            <stop id="stop2" stop-color="rgba(127.725, 31, 251, 0.89)" offset="100%"></stop>
                        </linearGradient>
                    </defs>
                <path fill="url(#sw-gradient)" d="M23.6,-38.4C30.6,-36.8,36.5,-30.6,37.7,-23.4C38.9,-16.3,35.5,-8.1,34.5,-0.6C33.5,7,34.9,14,33.5,20.8C32.1,27.6,27.8,34.1,21.7,36C15.7,37.9,7.8,35.1,-0.1,35.3C-8,35.4,-16,38.6,-20.6,35.8C-25.1,33,-26.1,24.4,-30.1,17.4C-34.2,10.5,-41.1,5.2,-41.1,0C-41.1,-5.2,-34.2,-10.5,-29.1,-15.6C-24.1,-20.7,-20.9,-25.7,-16.4,-28.8C-11.8,-31.8,-5.9,-32.9,1.2,-34.9C8.3,-37,16.5,-40,23.6,-38.4Z" width="100%" height="100%" transform="translate(50 50)" stroke-width="0" style="transition: all 0.3s ease 0s;" stroke="url(#sw-gradient)"></path>
              </svg>